<svg xmlns="http://www.w3.org/2000/svg" width="75" height="36" fill="none"><path fill="#EA4335" fill-rule="evenodd" d="m17.713 18.07 12.082-6.975A5.947 5.947 0 0 0 23.85.795L2.972 12.853l14.74 5.218Z" clip-rule="evenodd"/><path fill="#4285F4" fill-rule="evenodd" d="M26.818 36a5.944 5.944 0 0 0 2.978-11.094L8.919 12.85a5.945 5.945 0 0 0-5.945 10.3l20.877 12.053c.936.54 1.96.797 2.967.797Z" clip-rule="evenodd"/><path fill="#FBBC04" fill-rule="evenodd" d="M47.588 36a5.923 5.923 0 0 0 2.967-.797L71.432 23.15l-14.553-5.328-12.269 7.085A5.945 5.945 0 0 0 47.588 36Z" clip-rule="evenodd"/><path fill="#0F9D58" fill-rule="evenodd" d="M68.454 23.946a5.945 5.945 0 0 0 2.978-11.094L50.553.796a5.946 5.946 0 0 0-5.943 10.3l20.877 12.053c.936.54 1.96.797 2.967.797Z" clip-rule="evenodd"/></svg>